# xmcd
#
# Track frame offsets:
#	183
#	28563
#	56483
#	88013
#	122675
#	155058
#	180150
#	208248
#	231290
#	256185
#	282865
#	309483
#
# Disc length: 4558 seconds
#
# Revision: 4
# Processed by: cddbd v1.5.1PL2 Copyright (c) Steve Scherf et al.
# Submitted via: EasyCDDAExtractor 8.2.3.1
#
DISCID=9e11cc0c
DTITLE=Various Artist - 4 Beat vol1 - The Happier Side Of Hardcore
DYEAR=1995
DGENRE=Happy Hardcore
TTITLE0=Jack 'N' Phil - Unity
TTITLE1=Beatmen - Seventh Way
TTITLE2=Fast Floor - 7th Heaven
TTITLE3=Format - The Stomper
TTITLE4=Higher Level - Everbody Can Be
TTITLE5=Sy Project - Emotions
TTITLE6=Frantic and Impulse - Spiced Up
TTITLE7=Wendy - Fantasy Wonderland
TTITLE8=Motiv-8 - It's All Over
TTITLE9=Pooch and Hursee - Baby Baby
TTITLE10=Higher Level - High Spirits
TTITLE11=S and A - Peaked Up
EXTD=
EXTT0=Jack 'N' Phil
EXTT1=Beatman
EXTT2=Fast Floor
EXTT3=Format
EXTT4=Higher Level
EXTT5=Sy Project
EXTT6=Frantic and Impulse
EXTT7=Wendy
EXTT8=Motiv-8
EXTT9=Pooch and Hursee
EXTT10=Higher Level
EXTT11=S&A
PLAYORDER=
